<svg width="250" height="32" viewBox="0 0 250 32" fill="none" xmlns="http://www.w3.org/2000/svg">
<path d="M138.907 11.7765C138.907 12.0121 138.75 12.1691 138.514 12.1691H111.453C111.217 12.1691 111.059 12.0121 111.059 11.7765V0.470688C111.059 0.23515 110.902 0.078125 110.666 0.078125H103.114C102.878 0.078125 102.721 0.23515 102.721 0.470688V30.8551C102.721 31.0906 102.878 31.2477 103.114 31.2477H110.666C110.902 31.2477 111.059 31.0906 111.059 30.8551V19.0782C111.059 18.8427 111.217 18.6856 111.453 18.6856H138.514C138.75 18.6856 138.907 18.8427 138.907 19.0782V30.8551C138.907 31.0906 139.064 31.2477 139.3 31.2477H146.852C147.088 31.2477 147.246 31.0906 147.246 30.8551V0.470688C147.246 0.23515 147.088 0.078125 146.852 0.078125H139.3C139.064 0.078125 138.907 0.23515 138.907 0.470688V11.7765Z" fill="white"/>
<path d="M167.384 24.8096V18.9212C167.384 18.6856 167.541 18.5286 167.777 18.5286H184.061C184.297 18.5286 184.454 18.3716 184.454 18.136V12.6402C184.454 12.4046 184.297 12.2476 184.061 12.2476H167.777C167.541 12.2476 167.384 12.0906 167.384 11.855V6.59468C167.384 6.35914 167.541 6.20212 167.777 6.20212H192.006C192.242 6.20212 192.4 6.04509 192.4 5.80955V0.470688C192.4 0.23515 192.242 0.078125 192.006 0.078125H167.384H159.439C159.203 0.078125 159.045 0.23515 159.045 0.470688V30.8551C159.045 31.0906 159.203 31.2477 159.439 31.2477H167.384H193.186C193.422 31.2477 193.58 31.0906 193.58 30.8551V25.5948C193.58 25.3592 193.422 25.2022 193.186 25.2022H167.777C167.541 25.1237 167.384 25.0452 167.384 24.8096Z" fill="white"/>
<path d="M93.202 0.470688C93.202 0.23515 93.0447 0.078125 92.8087 0.078125H75.1089H66.6916H48.9918C48.7558 0.078125 48.5985 0.23515 48.5985 0.470688V6.04509C48.5985 6.28063 48.7558 6.43765 48.9918 6.43765H66.2983C66.5343 6.43765 66.6916 6.59468 66.6916 6.83022V30.8551C66.6916 31.0906 66.849 31.2477 67.085 31.2477H74.6369C74.8729 31.2477 75.0302 31.0906 75.0302 30.8551V6.83022C75.0302 6.59468 75.1875 6.43765 75.4235 6.43765H92.73C92.966 6.43765 93.1233 6.28063 93.1233 6.04509V0.470688H93.202Z" fill="white"/>
<path d="M40.3386 31.2477H48.4411C48.7558 31.2477 48.9918 30.8551 48.7558 30.6196L28.7747 0.235151C28.6961 0.156638 28.5387 0.078125 28.4601 0.078125H20.6721C20.5148 0.078125 20.4361 0.156638 20.3575 0.235151L0.061722 30.6196C-0.0956095 30.8551 0.0617217 31.2477 0.376385 31.2477H8.32162C8.47896 31.2477 8.55762 31.1692 8.63629 31.0906L12.4909 25.2022C12.5696 25.1237 12.7269 25.0452 12.8056 25.0452H35.776C35.9333 25.0452 36.012 25.1237 36.0906 25.2022L39.9453 31.0906C40.1026 31.1692 40.1812 31.2477 40.3386 31.2477ZM17.2895 17.9005L24.0548 7.53683C24.2121 7.30129 24.6054 7.30129 24.7628 7.53683L31.4493 17.9005C31.6067 18.136 31.4494 18.5286 31.1347 18.5286H17.6042C17.2895 18.5286 17.1322 18.2146 17.2895 17.9005Z" fill="white"/>
<path d="M243.218 19.8637C246.05 17.9009 247.938 14.6034 247.859 10.8348C247.78 4.78927 242.667 0 236.61 0H212.617H204.671C204.435 0 204.278 0.157025 204.278 0.392563V21.8265V30.8555C204.278 31.091 204.435 31.2481 204.671 31.2481H212.223C212.459 31.2481 212.617 31.091 212.617 30.8555V22.2191C212.617 21.9836 212.774 21.8265 213.01 21.8265H234.958C235.115 21.8265 235.194 21.905 235.272 21.9836L241.487 31.091C241.566 31.1695 241.723 31.2481 241.802 31.2481H249.59C249.904 31.2481 250.14 30.8555 249.904 30.62L242.903 20.4133C242.982 20.2563 242.982 20.0207 243.218 19.8637ZM235.43 15.31H216.078C213.639 15.31 211.515 13.4257 211.515 11.0703C211.437 8.55788 213.482 6.51655 215.921 6.51655H235.272C237.711 6.51655 239.835 8.40086 239.835 10.7562C239.914 13.2686 237.947 15.31 235.43 15.31Z" fill="white"/>
</svg>
