<svg width="65" height="65" viewBox="0 0 65 65" fill="none" xmlns="http://www.w3.org/2000/svg">
<g id="Arrow circle down" clip-path="url(#clip0_382_718)">
<g id="Group">
<path id="Vector" d="M32.5 10.8333C44.4438 10.8333 54.1667 20.5562 54.1667 32.5C54.1667 44.4437 44.4438 54.1666 32.5 54.1666C20.5563 54.1666 10.8334 44.4437 10.8334 32.5C10.8334 20.5562 20.5563 10.8333 32.5 10.8333ZM32.5 5.41663C17.55 5.41663 5.41669 17.55 5.41669 32.5C5.41669 47.45 17.55 59.5833 32.5 59.5833C47.45 59.5833 59.5834 47.45 59.5834 32.5C59.5834 17.55 47.45 5.41663 32.5 5.41663ZM35.2084 32.5V21.6666H29.7917V32.5H21.6667L32.5 43.3333L43.3334 32.5H35.2084Z" fill="#D3D3D3" fill-opacity="0.8"/>
</g>
</g>
<defs>
<clipPath id="clip0_382_718">
<rect width="65" height="65" fill="white"/>
</clipPath>
</defs>
</svg>
