<svg xmlns="http://www.w3.org/2000/svg" xmlns:xlink="http://www.w3.org/1999/xlink" version="1.1" x="0px" y="0px" viewBox="0 0 100 125" enable-background="new 0 0 100 100" xml:space="preserve"><path d="M76.377,6.277c-8.158-3.075-17.223,1.569-21.632,8.542c-2.961,4.683-4.185,10.223-4.953,15.637  c-0.34,2.395-0.643,4.797-0.935,7.2c-2.683-4.729-6.084-9.028-10.186-12.678c-4.373-3.891-15.833-13.701-21-6.561  c-5.552,7.672-2.678,18.732,0.976,26.498c3.971,8.442,9.868,16.192,15.86,23.294c6.85,8.119,14.616,15.32,23.037,21.775  c-0.02,0.072-0.042,0.144-0.062,0.216c-1.349,4.815,6.133,6.87,7.48,2.062c5.855-20.893,16.754-40.335,19.861-61.989  C86.078,21.524,86.311,10.022,76.377,6.277z M54.113,52.222c-0.034-0.062-0.067-0.124-0.1-0.186c0.056-0.054,0.11-0.109,0.163-0.166  C54.155,51.987,54.134,52.105,54.113,52.222z M37.771,41.214c0.323,0.978,0.642,1.957,0.981,2.929  c-1.345-2.007-2.656-4.036-3.927-6.09C35.827,39.088,36.809,40.142,37.771,41.214z M58.374,78.85  c0.461,1.033,0.921,2.067,1.379,3.101c-1.184-0.941-2.356-1.897-3.507-2.877C56.954,79.246,57.693,79.144,58.374,78.85z   M72.812,13.271c4.977,1.119,5.19,7.018,4.92,11.136c-0.001,0.009-0.002,0.019-0.002,0.028c-0.964,0.159-1.873,0.733-2.497,1.861  c-2.731,4.939-5.032,10.054-7.031,15.285c0.802-8.65,1.973-17.266,3.525-25.83c0.175-0.967,0-1.887-0.397-2.669  C71.827,13.1,72.323,13.161,72.812,13.271z M59.539,22.443c-1.241,4.376-1.767,9.064-2.533,13.402  c-0.197,1.115-0.394,2.229-0.59,3.344c0.286-2.401,0.584-4.799,0.929-7.19C57.798,28.863,58.369,25.506,59.539,22.443z   M40.697,63.553c-6.042-7.05-12.128-14.974-15.811-23.558c-0.981-2.287-1.819-4.756-2.229-7.268  c0.607,1.024,1.212,2.001,1.718,2.903c2.826,5.041,5.929,9.922,9.201,14.685c6.246,9.094,13.097,17.756,19.959,26.39  C48.973,72.608,44.684,68.204,40.697,63.553z"/><text x="0" y="115" fill="#000000" font-size="5px" font-weight="bold" font-family="'Helvetica Neue', Helvetica, Arial-Unicode, Arial, Sans-serif">Created by Ale Estrada</text><text x="0" y="120" fill="#000000" font-size="5px" font-weight="bold" font-family="'Helvetica Neue', Helvetica, Arial-Unicode, Arial, Sans-serif">from the Noun Project</text></svg>