<svg width="64" height="64" viewBox="0 0 64 64" fill="none" xmlns="http://www.w3.org/2000/svg">
<g clip-path="url(#clip0_528_83)">
<path d="M6.96607 61.2602C6.82307 61.7922 6.27507 62.1092 5.74207 61.9672C5.20807 61.8222 4.89107 61.2762 5.03407 60.7422L7.58607 51.0562C7.99107 51.7282 8.58407 52.2682 9.29807 52.6062L6.96607 61.2602Z" fill="#506C7F"/>
<path d="M55 27C55 40.233 44.233 51 31 51H11C9.896 51 9 50.104 9 49V48V27C9 14.641 18.92 4.76902 33.124 2.99202C37.963 2.38802 43.515 2.04102 48.357 2.04102C52.405 2.04102 55.91 2.28302 58.595 2.74602C55 11.565 55 20.443 55 27Z" fill="#D1D515"/>
<path d="M34.9291 7.6292C34.7241 7.1162 34.1421 6.8662 33.6321 7.0722C33.1191 7.2752 32.8681 7.8562 33.0701 8.3692C33.0891 8.4162 34.9101 13.1732 33.0381 19.7252C33.0381 19.7252 33.0371 19.7322 33.0371 19.7362C31.8221 20.8392 30.5781 22.0072 29.2931 23.2932C27.9361 24.6502 26.7021 25.9642 25.5481 27.2412C26.5461 18.0582 25.0501 11.1132 24.9771 10.7832C24.8571 10.2442 24.3231 9.9072 23.7841 10.0232C23.2451 10.1432 22.9051 10.6772 23.0241 11.2162C23.0431 11.3022 24.8471 19.6852 23.1541 29.9792C20.8941 32.6742 19.1041 35.1192 17.6901 37.2402C18.3991 29.3402 17.0461 23.0952 16.9771 22.7832C16.8571 22.2442 16.3271 21.8972 15.7841 22.0242C15.2451 22.1432 14.9051 22.6772 15.0241 23.2162C15.0441 23.3032 16.9091 31.9662 15.0721 41.5132C13.6891 44.0012 13.1191 45.5012 13.0621 45.6542C12.8721 46.1722 13.1361 46.7462 13.6541 46.9372C13.7681 46.9792 13.8851 47.0002 14.0001 47.0002C14.4061 47.0002 14.7881 46.7502 14.9381 46.3472C14.9511 46.3132 15.4381 45.0452 16.6221 42.8792C27.0601 40.1532 36.6171 42.9302 36.7141 42.9582C36.8091 42.9862 36.9051 43.0002 37.0001 43.0002C37.4311 43.0002 37.8281 42.7202 37.9581 42.2862C38.1161 41.7582 37.8161 41.2012 37.2871 41.0422C36.8971 40.9242 28.2001 38.3912 18.0001 40.5062C19.4161 38.1902 21.4061 35.2882 24.1081 31.9862C24.1601 31.9802 24.2121 31.9782 24.2621 31.9652C34.8571 29.0762 45.6291 31.9362 45.7371 31.9652C45.8251 31.9882 45.9131 32.0002 46.0001 32.0002C46.4401 32.0002 46.8441 31.7082 46.9651 31.2632C47.1101 30.7302 46.7961 30.1812 46.2631 30.0352C45.8381 29.9192 36.4621 27.4372 26.2511 29.4592C27.5921 27.9352 29.0651 26.3502 30.7071 24.7072C32.1171 23.2972 33.4841 22.0142 34.8101 20.8272C41.2621 19.1782 47.6621 20.9432 47.7261 20.9622C47.8171 20.9872 47.9091 21.0002 48.0001 21.0002C48.4361 21.0002 48.8361 20.7132 48.9611 20.2732C49.1121 19.7432 48.8061 19.1902 48.2741 19.0382C48.0351 18.9712 43.3741 17.6712 37.8011 18.2592C46.3321 11.2382 52.2731 8.9652 52.3461 8.9382C52.8641 8.7472 53.1281 8.1712 52.9371 7.6542C52.7461 7.1352 52.1711 6.8752 51.6541 7.0622C51.3281 7.1822 44.8491 9.6422 35.5861 17.4932C36.5271 11.7352 35.0041 7.8162 34.9291 7.6292Z" fill="#394240"/>
<path d="M60.893 1.54899C60.757 1.27999 60.507 1.08699 60.214 1.02399C57.234 0.371992 53.244 0.0419922 48.358 0.0419922C43.436 0.0419922 37.794 0.394992 32.877 1.00899C17.641 2.91199 7.00003 13.601 7.00003 27V45.678L3.10303 60.225C2.67503 61.823 3.62603 63.469 5.22503 63.899C6.82303 64.325 8.47003 63.374 8.89803 61.778L11.25 53H31C45.337 53 57 41.337 57 27C57 20.337 57 11.212 60.914 2.40599C61.036 2.13199 61.028 1.81599 60.893 1.54899ZM6.96603 61.26C6.82303 61.792 6.27503 62.109 5.74203 61.967C5.20803 61.822 4.89103 61.276 5.03403 60.742L7.58603 51.056C7.99103 51.728 8.58403 52.268 9.29803 52.606L6.96603 61.26ZM55 27C55 40.233 44.233 51 31 51H11C9.89603 51 9.00003 50.104 9.00003 49V48V27C9.00003 14.641 18.92 4.76899 33.124 2.99199C37.963 2.38799 43.515 2.04099 48.357 2.04099C52.405 2.04099 55.91 2.28299 58.595 2.74599C55 11.565 55 20.443 55 27Z" fill="#394240"/>
</g>
<defs>
<clipPath id="clip0_528_83">
<rect width="64" height="64" fill="white"/>
</clipPath>
</defs>
</svg>
