<svg width="528" height="54" viewBox="0 0 528 54" fill="none" xmlns="http://www.w3.org/2000/svg">
<path d="M353.514 41.8672V31.9305C353.514 31.5329 353.846 31.268 354.344 31.268H388.736C389.235 31.268 389.566 31.0031 389.566 30.6055V21.3313C389.566 20.9337 389.235 20.6688 388.736 20.6688H354.344C353.846 20.6688 353.514 20.4039 353.514 20.0063V11.1295C353.514 10.732 353.846 10.4671 354.344 10.4671H405.516C406.014 10.4671 406.348 10.2021 406.348 9.80459V0.795263C406.348 0.397792 406.014 0.132812 405.516 0.132812H353.514H336.734C336.236 0.132812 335.902 0.397792 335.902 0.795263V52.069C335.902 52.4664 336.236 52.7315 336.734 52.7315H353.514H408.008C408.507 52.7315 408.84 52.4664 408.84 52.069V43.1922C408.84 42.7946 408.507 42.5297 408.008 42.5297H354.344C353.846 42.3972 353.514 42.2648 353.514 41.8672Z" fill="url(#paint0_linear_344_17)"/>
<path d="M293.372 19.8738C293.372 20.2714 293.041 20.5363 292.542 20.5363H235.389C234.891 20.5363 234.557 20.2714 234.557 19.8738V0.795263C234.557 0.397792 234.226 0.132812 233.727 0.132812H217.777C217.279 0.132812 216.947 0.397792 216.947 0.795263V52.069C216.947 52.4664 217.279 52.7315 217.777 52.7315H233.727C234.226 52.7315 234.557 52.4664 234.557 52.069V32.1954C234.557 31.798 234.891 31.5329 235.389 31.5329H292.542C293.041 31.5329 293.372 31.798 293.372 32.1954V52.069C293.372 52.4664 293.704 52.7315 294.202 52.7315H310.152C310.65 52.7315 310.984 52.4664 310.984 52.069V0.795263C310.984 0.397792 310.65 0.132812 310.152 0.132812H294.202C293.704 0.132812 293.372 0.397792 293.372 0.795263V19.8738Z" fill="white"/>
<path d="M196.843 0.795263C196.843 0.397792 196.511 0.132812 196.013 0.132812H158.631H140.853H103.471C102.973 0.132812 102.641 0.397792 102.641 0.795263V10.2021C102.641 10.5995 102.973 10.8645 103.471 10.8645H140.023C140.521 10.8645 140.853 11.1295 140.853 11.527V52.069C140.853 52.4664 141.186 52.7315 141.684 52.7315H157.634C158.132 52.7315 158.464 52.4664 158.464 52.069V11.527C158.464 11.1295 158.797 10.8645 159.295 10.8645H195.846C196.345 10.8645 196.677 10.5995 196.677 10.2021V0.795263H196.843Z" fill="url(#paint1_linear_344_17)"/>
<path d="M85.1951 52.7315H102.308C102.972 52.7315 103.471 52.069 102.972 51.6716L60.7722 0.397794C60.6062 0.265303 60.2737 0.132812 60.1077 0.132812H43.6595C43.3273 0.132812 43.161 0.265303 42.995 0.397794L0.130357 51.6716C-0.201927 52.069 0.130356 52.7315 0.794925 52.7315H17.5753C17.9076 52.7315 18.0737 52.599 18.2398 52.4664L26.3808 42.5297C26.547 42.3972 26.8792 42.2648 27.0454 42.2648H75.5589C75.8911 42.2648 76.0573 42.3972 76.2233 42.5297L84.3645 52.4664C84.6967 52.599 84.8627 52.7315 85.1951 52.7315ZM36.5154 30.2081L50.8037 12.7194C51.136 12.3219 51.9666 12.3219 52.299 12.7194L66.4209 30.2081C66.7533 30.6055 66.4211 31.268 65.7565 31.268H37.1801C36.5154 31.268 36.1832 30.7381 36.5154 30.2081Z" fill="url(#paint2_linear_344_17)"/>
<path d="M513.677 33.52C519.658 30.2078 523.645 24.6432 523.479 18.2837C523.312 8.08189 512.513 0 499.721 0H449.048H432.266C431.767 0 431.436 0.26498 431.436 0.66245V36.8322V52.0687C431.436 52.4661 431.767 52.7312 432.266 52.7312H448.215C448.714 52.7312 449.048 52.4661 449.048 52.0687V37.4947C449.048 37.0973 449.379 36.8322 449.878 36.8322H496.232C496.563 36.8322 496.73 36.9647 496.895 37.0973L510.021 52.4661C510.188 52.5985 510.519 52.7312 510.686 52.7312H527.134C527.798 52.7312 528.296 52.0687 527.798 51.6713L513.012 34.4474C513.178 34.1825 513.178 33.7849 513.677 33.52ZM497.229 25.8356H456.357C451.206 25.8356 446.72 22.6559 446.72 18.6811C446.555 14.4414 450.874 10.9967 456.026 10.9967H496.895C502.046 10.9967 506.532 14.1765 506.532 18.1511C506.699 22.3908 502.544 25.8356 497.229 25.8356Z" fill="url(#paint3_linear_344_17)"/>
<defs>
<linearGradient id="paint0_linear_344_17" x1="372.371" y1="0.132812" x2="372.371" y2="52.7315" gradientUnits="userSpaceOnUse">
<stop stop-color="#000046"/>
<stop offset="1" stop-color="#1CB5E0"/>
</linearGradient>
<linearGradient id="paint1_linear_344_17" x1="149.742" y1="0.132812" x2="149.742" y2="52.7315" gradientUnits="userSpaceOnUse">
<stop stop-color="#000046"/>
<stop offset="1" stop-color="#1CB5E0"/>
</linearGradient>
<linearGradient id="paint2_linear_344_17" x1="51.5874" y1="0.132812" x2="51.843" y2="52.4577" gradientUnits="userSpaceOnUse">
<stop stop-color="#000046"/>
<stop offset="1" stop-color="#1CB5E0"/>
</linearGradient>
<linearGradient id="paint3_linear_344_17" x1="479.718" y1="0" x2="479.718" y2="52.7312" gradientUnits="userSpaceOnUse">
<stop stop-color="#000046"/>
<stop offset="1" stop-color="#1CB5E0"/>
</linearGradient>
</defs>
</svg>
