<svg width="22" height="21" viewBox="0 0 22 21" fill="none" xmlns="http://www.w3.org/2000/svg">
<g id="yt-live-icon 1">
<path id="Vector" d="M21.1953 5.38281C21.6641 7.02344 21.6641 10.5391 21.6641 10.5391C21.6641 10.5391 21.6641 14.0156 21.1953 15.6953C20.9609 16.6328 20.2188 17.3359 19.3203 17.5703C17.6406 18 11 18 11 18C11 18 4.32031 18 2.64062 17.5703C1.74219 17.3359 1 16.6328 0.765625 15.6953C0.296875 14.0156 0.296875 10.5391 0.296875 10.5391C0.296875 10.5391 0.296875 7.02344 0.765625 5.38281C1 4.44531 1.74219 3.70312 2.64062 3.46875C4.32031 3 11 3 11 3C11 3 17.6406 3 19.3203 3.46875C20.2188 3.70312 20.9609 4.44531 21.1953 5.38281ZM8.8125 13.7031L14.3594 10.5391L8.8125 7.375V13.7031Z" fill="white"/>
</g>
</svg>
