<svg width="64" height="64" viewBox="0 0 64 64" fill="none" xmlns="http://www.w3.org/2000/svg">
<g id="Layer_1" clip-path="url(#clip0_264_66)">
<g id="SVGRepo_iconCarrier">
<g id="Group">
<path id="Vector" fill-rule="evenodd" clip-rule="evenodd" d="M8.85416 28.9325C6.27603 29.6877 5.18228 32.3388 5.21874 35.3492C5.23437 36.7086 5.47916 38.1357 5.92187 39.5159C6.36458 40.8909 6.99999 42.1982 7.80728 43.3232C9.64062 45.8909 12.3698 47.4586 15.5677 46.3596C15.8073 46.2763 16.0625 46.2971 16.276 46.3961C16.3281 46.3752 16.3802 46.3596 16.4375 46.3388C17.2344 46.0784 17.974 45.8544 18.6458 45.6513C19.3958 45.4273 20.1042 45.2242 20.7708 45.0471C21.2864 44.9065 21.8177 45.2138 21.9583 45.7294C21.9687 45.7659 21.9739 45.8023 21.9792 45.8388C22.0729 46.2607 22.1719 46.6825 22.2656 47.1044C23 50.3752 23.7083 53.5315 24.6562 56.094C24.6719 56.1409 24.7969 56.4898 24.9271 56.8388C25.5104 58.4534 26.1406 60.1773 26.9479 61.1929C27.6614 62.0836 28.6458 62.3492 30.1771 61.1513C30.4635 60.8805 30.7552 60.6304 31.0521 60.3752C31.9635 59.5888 32.8802 58.8075 33.2135 57.6305C33.0052 57.344 32.6042 57.1721 32.2031 57.0002C30.8646 56.4325 29.526 55.8596 29.8854 53.0471C29.901 52.9013 29.9219 52.7711 29.9375 52.6409C30.0417 51.818 30.099 51.3961 30.0469 51.2138C30.0208 51.1148 29.8177 50.9325 29.4167 50.5627L29.2708 50.4273C28.4792 49.7034 28.1979 48.6669 28.2083 47.5471C28.2187 46.2294 28.651 44.7815 29.0833 43.7398C29.2187 43.4117 29.5156 43.1982 29.8437 43.1513C39.8542 41.7659 45.9583 43.5055 50.8125 44.8909C51.0208 44.9482 51.2292 45.0107 51.4323 45.068C47.0989 40.5992 43.5469 33.8284 41.1146 26.8909C38.5469 19.5627 37.2292 11.9898 37.5729 6.68774C33.6042 12.5523 26.6406 21.8648 10.0417 27.969C10.026 27.9742 10.0104 27.9794 9.99478 27.9846L9.86458 28.0315C9.6927 28.094 9.66666 28.0784 9.64062 28.0992C9.60416 28.1305 9.64062 28.1305 9.57291 28.2398C9.56249 28.2555 9.59374 28.2034 9.39583 28.5159C9.27083 28.7242 9.07291 28.8648 8.85416 28.9325ZM50.1979 27.5107C50.1979 29.9117 47.8437 34.2294 46.3698 34.3127C48.8802 39.2294 51.9635 43.4846 55.4375 46.0263C55.6406 46.0523 55.8281 46.068 56.0052 46.0575C56.3437 46.0471 56.6771 45.9534 57.0417 45.7242C57.8333 44.9273 58.3333 43.6773 58.5885 42.0992C59.3698 37.2346 57.776 29.6148 55.1042 22.2815C52.4271 14.9325 48.6875 7.92733 45.1927 4.30233C43.9114 2.9742 42.7031 2.14087 41.6562 1.96899C41.3906 1.92733 41.2396 1.91691 41.1667 1.94295C41.0781 1.9742 40.9427 2.0992 40.7292 2.31274C40.625 2.41691 40.5208 2.53149 40.4114 2.65649C40.401 2.68774 40.3854 2.71899 40.375 2.74503C38.7396 6.12003 39.2708 13.4065 41.3906 21.219C42.9896 20.469 50.1979 21.3232 50.1979 27.5107ZM55.3385 47.9586C55.1302 48.0002 54.9062 47.969 54.7083 47.8648C54.526 47.8336 54.3437 47.7919 54.151 47.7555C52.8906 47.495 51.6354 47.1357 50.2812 46.7502C45.6927 45.443 39.9375 43.8023 30.6667 44.9898C30.3802 45.7815 30.1406 46.7242 30.1354 47.5627C30.1302 48.1669 30.2448 48.6982 30.5677 48.995L30.7135 49.1305C31.401 49.7555 31.7396 50.0627 31.9114 50.7138C32.0573 51.2555 31.9844 51.8023 31.8437 52.8857C31.8281 53.0107 31.8125 53.1461 31.7917 53.2919C31.6198 54.6565 32.2864 54.9429 32.9531 55.2242C33.8177 55.594 34.6875 55.9638 35.1146 57.1461C35.1875 57.318 35.2135 57.5159 35.1771 57.7138C34.7864 59.7138 33.5469 60.7815 32.3021 61.8492C32.026 62.0888 31.75 62.3232 31.4896 62.5679C31.4687 62.5888 31.4479 62.6044 31.4271 62.6252C28.7187 64.7919 26.8594 64.1825 25.4375 62.4065C24.4219 61.1357 23.7396 59.2607 23.1042 57.5055C23.0521 57.3544 22.9948 57.2086 22.8333 56.7659C21.8489 54.1096 21.125 50.8752 20.375 47.5315L20.2969 47.193C19.9219 47.2971 19.5521 47.4065 19.1875 47.5159C18.4323 47.7398 17.7083 47.9638 17.0156 48.1877C16.9271 48.2138 16.8698 48.2398 16.8229 48.2607C16.3698 48.443 16.1667 48.5211 15.7604 48.3336C11.776 49.495 8.44791 47.5732 6.21874 44.4534C5.31249 43.1565 4.58333 41.6617 4.08333 40.1044C3.58333 38.5471 3.30728 36.9221 3.28645 35.3648C3.24478 31.6669 4.65103 28.3648 7.9427 27.1982C8.10416 26.9325 8.19791 26.7867 8.40103 26.6148C8.6302 26.4221 8.8177 26.3544 9.20833 26.2138L9.33333 26.1669C9.34895 26.1617 9.36458 26.1565 9.3802 26.1513C26.4167 19.8805 32.9583 10.1148 36.6771 4.55753C37.7187 3.00545 38.5469 1.76587 39.3646 0.94816C39.7656 0.547118 40.0729 0.29191 40.4896 0.13566C40.9219 -0.0257986 41.3437 -0.0362152 41.9583 0.0627431C43.4479 0.302326 45.0156 1.33878 46.5833 2.96378C50.2604 6.77628 54.1614 14.0471 56.9219 21.6304C59.6875 29.2346 61.3333 37.2086 60.4948 42.4065C60.1719 44.4273 59.4739 46.068 58.3281 47.1721C58.2917 47.2086 58.2448 47.245 58.1979 47.2763C57.4687 47.7711 56.7812 47.9638 56.0729 47.995C55.8281 48.0002 55.5833 47.9846 55.3385 47.9586Z" fill="#A8D5BA"/>
</g>
</g>
</g>
<defs>
<clipPath id="clip0_264_66">
<rect width="64" height="64" fill="white"/>
</clipPath>
</defs>
</svg>
